<svg data-v-423bf9ae="" xmlns="http://www.w3.org/2000/svg" viewBox="0 0 341.79080843849124 184" class="iconAboveSlogan"><!----><!----><!----><g data-v-423bf9ae="" id="730be346-fcc8-4865-8b8b-0024b7c0b5cb" fill="#000000" transform="matrix(4.754358204761736,0,0,4.754358204761736,5.467510153574949,84.98098401582887)"><path d="M2.31 3.99L2.25 3.99C1.33 3.99 0.57 3.92 0.52 3.92C0.28 3.92 0.21 4.13 0.21 4.30C0.21 4.54 0.39 4.58 0.52 4.59C1.32 4.68 1.65 4.62 1.65 5.11L1.65 13.80C1.65 14.17 1.62 14.36 1.53 14.71C1.46 14.98 1.30 15.57 0.83 15.57C0.22 15.57 0.17 14.64-0.52 14.64C-0.90 14.64-1.15 14.97-1.15 15.33C-1.15 15.82-0.70 16.41-0.03 16.41C0.66 16.41 1.55 15.62 1.69 15.48C2.39 14.81 2.93 13.79 2.93 12.66L2.93 5.14C2.93 4.87 2.97 4.69 3.29 4.66C3.95 4.59 4.19 4.66 4.19 4.21C4.19 4.07 4.14 3.93 3.95 3.93C3.78 3.93 3.29 3.99 2.31 3.99ZM6.64 13.44C7.55 13.44 8.29 13.52 8.33 13.52C8.51 13.52 8.55 13.37 8.55 13.13C8.55 12.81 8.08 12.85 7.87 12.82C7.20 12.75 7.20 12.56 7.20 12.36L7.20 8.57C7.20 8.43 7.22 8.33 7.41 8.33L12.18 8.33C12.31 8.33 12.36 8.36 12.36 8.48L12.36 12.28C12.36 12.59 12.33 12.80 11.94 12.81C11.09 12.88 10.95 12.81 10.95 13.24C10.95 13.38 10.99 13.52 11.17 13.52C11.23 13.52 11.96 13.44 12.87 13.44C13.78 13.44 14.52 13.52 14.57 13.52C14.80 13.52 14.85 13.33 14.85 13.16C14.85 12.80 14.52 12.85 13.99 12.81C13.62 12.78 13.59 12.53 13.59 12.36L13.59 12.29L13.59 4.94C13.59 4.76 13.62 4.58 13.97 4.54C14.63 4.44 14.94 4.48 14.94 4.07C14.94 3.91 14.84 3.79 14.67 3.79C14.62 3.79 13.83 3.85 12.84 3.85C11.97 3.85 11.54 3.82 11.40 3.82C11.17 3.82 11.06 3.95 11.06 4.16C11.06 4.61 11.69 4.38 12.05 4.54C12.33 4.63 12.35 4.90 12.35 5.14L12.35 7.21C12.35 7.32 12.33 7.46 12.11 7.46L7.38 7.46C7.22 7.46 7.20 7.38 7.20 7.27L7.20 4.96C7.20 4.70 7.24 4.55 7.52 4.54C8.37 4.48 8.58 4.52 8.58 4.24C8.58 4.20 8.57 4.16 8.57 4.12C8.54 3.95 8.51 3.82 8.30 3.82C8.13 3.82 7.63 3.85 6.62 3.85L6.58 3.85C5.60 3.85 5.11 3.82 4.94 3.82C4.68 3.82 4.62 4.10 4.62 4.20C4.62 4.51 4.98 4.45 5.24 4.49C5.66 4.55 5.95 4.52 5.95 4.97L5.95 12.38C5.95 12.61 5.92 12.80 5.59 12.82C4.82 12.88 4.63 12.84 4.63 13.15C4.63 13.36 4.69 13.52 4.91 13.52C4.97 13.52 5.70 13.44 6.64 13.44ZM19.32 3.92C19.08 3.92 19.01 4.14 19.01 4.31C19.01 4.55 19.17 4.59 19.33 4.61C20.06 4.65 20.26 4.61 20.26 4.90C20.26 4.94 20.24 5.01 20.24 5.10L20.24 12.38C20.24 12.61 20.20 12.75 19.95 12.77C18.97 12.84 18.77 12.78 18.77 13.08C18.77 13.12 18.77 13.16 18.79 13.20C18.80 13.36 18.82 13.52 19.03 13.52C19.08 13.52 19.87 13.44 20.82 13.44C21.77 13.44 22.54 13.52 22.60 13.52C22.83 13.52 22.88 13.29 22.88 13.12C22.88 12.78 22.55 12.85 21.77 12.80C21.52 12.77 21.52 12.59 21.52 12.45L21.52 4.89C21.52 4.77 21.55 4.66 21.74 4.65C22.46 4.58 22.62 4.62 22.62 4.20C22.62 3.98 22.50 3.93 22.39 3.93C22.25 3.93 21.81 3.99 20.93 3.99C20.06 3.99 19.38 3.92 19.32 3.92ZM25.09 8.16C25.09 8.15 25.10 8.11 25.10 8.08L25.10 7.53C25.10 7.42 25.06 7.32 24.93 7.32C24.88 7.32 24.84 7.35 24.79 7.38C23.49 8.08 23.46 8.06 23.46 8.18L23.46 8.19C23.46 8.25 23.51 8.29 23.55 8.33C24.18 8.81 24.18 8.78 24.18 9.11L24.18 12.46C24.18 12.70 24.16 12.88 23.81 12.94C23.38 13.01 23.27 12.99 23.27 13.27C23.27 13.47 23.41 13.52 23.49 13.52C23.53 13.52 24.05 13.44 24.72 13.44C25.41 13.44 25.98 13.54 26.03 13.54C26.15 13.54 26.21 13.43 26.21 13.29C26.21 12.98 26.04 13.01 25.45 12.91C25.16 12.87 25.14 12.67 25.14 12.52L25.14 12.47L25.14 9.16C25.14 9.10 25.14 9.03 25.16 8.97C25.21 8.72 25.79 8.06 26.60 8.06C26.92 8.06 27.69 8.19 28.00 8.90C28.17 9.32 28.18 10.16 28.18 10.42L28.18 12.59C28.18 12.82 28.14 12.89 27.96 12.92C27.40 13.02 27.23 12.99 27.23 13.24C27.23 13.38 27.26 13.52 27.43 13.52C27.45 13.52 27.96 13.44 28.57 13.44C29.27 13.44 29.62 13.52 29.75 13.52C29.83 13.52 29.96 13.48 29.96 13.24C29.96 13.15 29.95 13.02 29.76 12.99C29.27 12.92 29.09 12.95 29.09 12.56L29.09 12.53C29.09 10.60 29.11 10.35 29.11 10.11C29.11 9.87 29.11 9.63 29.08 9.39C28.94 7.66 27.72 7.38 27.09 7.38L27.06 7.38C25.86 7.39 25.20 8.22 25.14 8.22L25.13 8.22C25.12 8.22 25.09 8.20 25.09 8.16ZM30.53 9.11C30.53 9.80 30.95 10.50 32.09 10.82C32.54 10.95 33.77 11.09 33.77 12.01C33.77 12.57 33.26 12.95 32.63 12.95C31.82 12.95 31.18 12.42 31.04 12.12C30.84 11.73 31.07 11.26 30.72 11.26C30.51 11.26 30.46 11.33 30.46 11.69C30.46 11.89 30.48 12.15 30.48 12.53C30.48 12.74 30.51 12.85 30.65 13.01C31.05 13.48 31.93 13.71 32.58 13.71C33.96 13.71 34.71 12.71 34.71 11.82C34.71 11.59 34.65 11.13 34.29 10.71C33.77 10.11 33.11 10.07 32.40 9.87C31.36 9.58 31.29 9.06 31.29 8.86C31.29 8.41 31.70 8.12 32.17 8.12C32.63 8.12 33.14 8.41 33.32 8.67C33.52 8.95 33.47 9.35 33.77 9.35C33.88 9.35 34.09 9.31 34.09 9.13C34.09 9.07 33.91 8.15 33.82 7.66C33.81 7.59 33.77 7.39 33.60 7.39C33.43 7.39 33.38 7.53 33.25 7.53C33.18 7.53 32.97 7.46 32.55 7.46C31.29 7.46 30.53 8.27 30.53 9.11ZM39.86 12.98C39.87 12.98 39.90 12.98 39.90 13.03L39.90 13.36C39.90 13.50 39.93 13.64 40.10 13.64C40.15 13.64 40.21 13.61 40.25 13.58C41.45 12.92 41.65 13.24 41.65 12.82C41.65 12.74 41.64 12.70 41.54 12.66C40.92 12.36 40.84 12.40 40.84 12.24L40.84 7.85C40.84 7.71 40.82 7.57 40.63 7.57C40.45 7.57 40.28 7.59 38.91 7.63C38.79 7.64 38.71 7.69 38.71 7.87C38.71 8.01 38.78 8.06 38.92 8.09C39.63 8.22 39.84 8.20 39.84 8.60L39.84 12.04C39.84 12.21 39.82 12.22 39.61 12.46C39.35 12.71 38.95 12.96 38.42 12.96C37.67 12.96 37.16 12.46 36.93 12.03C36.68 11.52 36.68 11.00 36.68 10.58L36.68 7.71C36.68 7.62 36.65 7.55 36.54 7.55C36.40 7.55 36.25 7.56 35.08 7.63C34.94 7.64 34.93 7.73 34.93 7.83L34.93 7.87C34.93 8.11 35.11 8.05 35.36 8.16C35.74 8.30 35.74 8.43 35.74 8.55C35.74 8.78 35.73 10.36 35.73 10.81C35.73 11.10 35.74 11.38 35.77 11.66C35.94 12.95 36.78 13.69 37.91 13.69C39.07 13.69 39.79 12.98 39.86 12.98ZM43.93 8.16C43.90 8.16 43.89 8.13 43.89 8.09L43.89 7.53C43.89 7.41 43.88 7.25 43.72 7.25C43.68 7.25 43.64 7.28 43.60 7.29C42.14 8.01 42.13 7.98 42.13 8.05C42.14 8.11 42.17 8.13 42.18 8.15C42.84 8.62 42.95 8.61 42.95 8.89L42.95 12.60C42.95 12.81 42.90 12.89 42.70 12.94C42.32 13.03 42.07 12.95 42.07 13.29C42.07 13.43 42.15 13.52 42.29 13.52C42.34 13.52 42.94 13.44 43.72 13.44C44.48 13.44 45.09 13.52 45.14 13.52C45.32 13.52 45.33 13.36 45.33 13.24C45.33 12.92 45.15 12.98 44.31 12.91C43.97 12.88 43.96 12.64 43.96 12.49L43.96 12.43L43.96 9.07C43.96 8.97 43.96 8.90 44.02 8.82C44.10 8.69 44.66 8.25 45.11 8.25C45.57 8.25 45.58 8.60 45.93 8.60C46.17 8.60 46.35 8.41 46.51 8.32C46.62 8.22 46.87 8.06 46.89 7.83L46.89 7.81C46.89 7.42 46.24 7.20 45.79 7.20C45.64 7.20 45.51 7.21 45.39 7.25C45.01 7.39 43.99 8.16 43.93 8.16ZM47.32 8.61C47.32 8.93 47.61 9.11 47.88 9.11C48.06 9.11 48.15 9.02 48.19 8.96C48.22 8.90 48.59 8.02 49.39 8.02C49.76 8.02 50.04 8.22 50.20 8.40C50.48 8.72 50.54 9.07 50.54 9.52L50.54 10.02C50.54 10.12 50.53 10.19 50.43 10.22C50.40 10.23 48.72 10.29 47.96 10.89C47.63 11.16 47.38 11.61 47.38 12.14L47.38 12.15C47.38 13.01 48.01 13.72 48.97 13.72C49.49 13.72 49.95 13.54 50.27 13.33C50.62 13.09 50.58 13.02 50.65 13.02C50.67 13.02 50.67 13.03 50.68 13.03C50.71 13.05 51.04 13.61 51.67 13.61C52.40 13.61 52.75 12.82 52.75 12.50C52.75 12.38 52.68 12.32 52.63 12.32C52.42 12.32 52.44 12.78 52.01 12.78C51.87 12.78 51.53 12.71 51.53 12.17L51.53 9.41C51.53 9.24 51.52 9.07 51.51 8.90C51.37 7.53 50.01 7.36 49.48 7.36C48.31 7.36 47.32 8.11 47.32 8.61ZM49.31 12.95C49.13 12.95 48.87 12.92 48.71 12.77C48.48 12.57 48.41 12.22 48.41 12.00C48.41 11.65 48.57 11.40 48.75 11.24C49.21 10.81 50.16 10.74 50.41 10.74C50.54 10.74 50.55 10.81 50.55 11.14L50.55 11.72L50.55 12.05C50.55 12.18 50.54 12.28 50.47 12.38C50.40 12.47 49.99 12.95 49.31 12.95ZM54.81 8.16C54.81 8.15 54.82 8.11 54.82 8.08L54.82 7.53C54.82 7.42 54.78 7.32 54.66 7.32C54.60 7.32 54.56 7.35 54.52 7.38C53.21 8.08 53.19 8.06 53.19 8.18L53.19 8.19C53.19 8.25 53.23 8.29 53.27 8.33C53.90 8.81 53.90 8.78 53.90 9.11L53.90 12.46C53.90 12.70 53.89 12.88 53.54 12.94C53.10 13.01 52.99 12.99 52.99 13.27C52.99 13.47 53.13 13.52 53.21 13.52C53.26 13.52 53.77 13.44 54.45 13.44C55.13 13.44 55.71 13.54 55.75 13.54C55.87 13.54 55.93 13.43 55.93 13.29C55.93 12.98 55.76 13.01 55.17 12.91C54.88 12.87 54.87 12.67 54.87 12.52L54.87 12.47L54.87 9.16C54.87 9.10 54.87 9.03 54.88 8.97C54.94 8.72 55.51 8.06 56.32 8.06C56.64 8.06 57.41 8.19 57.72 8.90C57.89 9.32 57.90 10.16 57.90 10.42L57.90 12.59C57.90 12.82 57.86 12.89 57.68 12.92C57.12 13.02 56.95 12.99 56.95 13.24C56.95 13.38 56.98 13.52 57.15 13.52C57.18 13.52 57.68 13.44 58.30 13.44C59.00 13.44 59.35 13.52 59.47 13.52C59.56 13.52 59.68 13.48 59.68 13.24C59.68 13.15 59.67 13.02 59.49 12.99C59.00 12.92 58.81 12.95 58.81 12.56L58.81 12.53C58.81 10.60 58.83 10.35 58.83 10.11C58.83 9.87 58.83 9.63 58.80 9.39C58.66 7.66 57.44 7.38 56.81 7.38L56.78 7.38C55.58 7.39 54.92 8.22 54.87 8.22L54.85 8.22C54.84 8.22 54.81 8.20 54.81 8.16ZM62.75 13.69C63.80 13.69 64.61 13.12 65.06 12.50C65.10 12.45 65.14 12.36 65.14 12.28C65.14 12.14 65.03 12.04 64.90 12.04C64.58 12.04 64.29 12.80 63.20 12.80C61.91 12.80 60.98 11.63 60.98 10.33C60.98 9.16 61.73 8.18 62.58 8.18C63.39 8.18 63.63 9.02 64.27 9.02C64.57 9.02 64.83 8.81 64.83 8.48C64.83 7.95 64.06 7.45 63.06 7.45C61.26 7.45 60.06 8.78 60.06 10.68C60.06 12.40 61.14 13.69 62.75 13.69ZM65.46 10.56C65.46 12.95 67.02 13.71 68.17 13.71C69.16 13.71 70.07 13.20 70.64 12.46C70.71 12.38 70.74 12.29 70.74 12.24C70.74 12.11 70.64 12.03 70.52 12.03C70.38 12.03 70.27 12.15 70.20 12.22C69.76 12.64 69.15 12.91 68.53 12.91C66.77 12.91 66.46 11.05 66.46 10.88C66.46 10.75 66.54 10.77 69.44 9.77C69.85 9.63 70.57 9.49 70.57 9.07L70.57 9.06C70.57 8.93 70.52 8.82 70.46 8.75C69.94 8.04 69.02 7.41 68.05 7.41C66.65 7.41 65.46 8.60 65.46 10.56ZM69.22 9.10C69.22 9.16 69.17 9.23 69.09 9.27C69.06 9.28 66.51 10.28 66.47 10.28C66.44 10.28 66.40 10.26 66.40 10.18C66.40 8.93 66.93 8.18 67.75 8.18C68.53 8.18 69.22 8.93 69.22 9.10Z"></path></g><defs data-v-423bf9ae=""><linearGradient data-v-423bf9ae="" gradientTransform="rotate(25)" id="44e9a834-00a4-45ac-8814-58a9a31dc27b" x1="0%" y1="0%" x2="100%" y2="0%"><stop data-v-423bf9ae="" offset="0%" style="stop-color: rgb(132, 61, 72); stop-opacity: 1;"></stop><stop data-v-423bf9ae="" offset="100%" style="stop-color: rgb(205, 151, 142); stop-opacity: 1;"></stop></linearGradient></defs><g data-v-423bf9ae="" id="71ca5edc-872b-4bce-a06a-b0d01667e9d7" transform="matrix(6.428571428571429,0,0,6.428571428571429,116.35714285714286,-6.428571428571431)" stroke="none" fill="url(#44e9a834-00a4-45ac-8814-58a9a31dc27b)"><circle cx="6" cy="2.5" r="1.5"></circle><path d="M10.414 7L8.707 5.293A.997.997 0 0 0 8 5H7L6 6 5 5H4a1 1 0 0 0-1 1v3a1 1 0 0 0 1 1v4c0 .55.45 1 1 1s1-.45 1-1c0 .55.45 1 1 1s1-.45 1-1v-1.249C9.035 14.157 10.5 15 10.5 15s3.5-2 3.5-5V7h-3.586zM13 10c0 1.768-1.646 3.185-2.498 3.8C9.651 13.182 8 11.756 8 10V8h5v2z"></path></g><!----><g data-v-423bf9ae="" id="afe6e369-3559-4679-9dfa-1e772c1ac282" fill="#000000" transform="matrix(0.8341515354702782,0,0,0.8341515354702782,42.891469256238935,201.73562261006666)"><path d="M0.38 12.39C0.38 12.63 0.42 12.68 0.62 12.68C0.94 12.68 1.69 12.64 2.41 12.64C3.07 12.64 3.86 12.68 4.09 12.68C4.26 12.68 4.28 12.61 4.28 12.40C4.28 12.24 4.26 12.18 4.09 12.18L3.12 12.18C3.02 12.18 3.00 9.55 3.00 7.76L3.00 5.87C3.00 5.14 3.02 3.70 3.12 3.70L4.03 3.70C4.26 3.70 4.28 3.68 4.28 3.49C4.28 3.25 4.26 3.19 4.09 3.19C3.77 3.19 3.09 3.23 2.44 3.23C1.62 3.23 0.91 3.19 0.69 3.19C0.50 3.19 0.43 3.21 0.43 3.44C0.43 3.68 0.52 3.70 0.69 3.70L1.61 3.70C1.65 3.70 1.72 4.79 1.72 5.71L1.72 7.08C1.72 8.92 1.71 12.18 1.60 12.18L0.67 12.18C0.45 12.18 0.38 12.19 0.38 12.39ZM11.94 7.73C11.94 7.77 11.96 7.80 12.01 7.80C12.07 7.80 12.75 7.74 12.80 7.74C12.88 7.74 12.94 7.70 12.95 7.90C12.98 8.33 12.98 8.81 12.98 9.28C12.98 9.73 12.95 12.21 12.87 12.21L12.24 12.21C12.07 12.21 12.05 12.29 12.05 12.43C12.05 12.59 12.05 12.67 12.24 12.67C12.66 12.67 13.16 12.64 13.51 12.64C13.92 12.64 14.42 12.67 14.69 12.67C14.87 12.67 14.87 12.56 14.87 12.43C14.87 12.29 14.87 12.21 14.67 12.21L14.14 12.21C14.01 12.21 14 12.21 14 11.98C14 10.84 14.01 9.67 14.01 8.53C14.01 8.41 14.03 8.36 14.24 8.25C14.52 8.11 14.92 7.85 15.47 7.85C16.52 7.85 16.77 8.62 16.77 9.63C16.77 11.03 16.74 12.21 16.69 12.21L16.09 12.21C15.93 12.21 15.86 12.26 15.86 12.45C15.86 12.61 15.86 12.67 16.07 12.67C16.49 12.67 16.94 12.64 17.29 12.64C17.70 12.64 18.07 12.67 18.34 12.67C18.54 12.67 18.55 12.56 18.55 12.43C18.55 12.25 18.49 12.21 18.31 12.21L17.89 12.21C17.78 12.21 17.78 12.21 17.78 12.08C17.78 11.87 17.85 10.47 17.85 9.70C17.85 8.33 17.60 7.18 15.95 7.18C15.08 7.18 14.56 7.63 14.14 7.90C14.04 7.95 13.99 8.05 13.99 7.90L13.99 7.42C13.99 7.28 14.01 7.21 13.80 7.22C13.40 7.25 12.45 7.31 12.25 7.32C12.05 7.34 12.07 7.35 12.03 7.46C12.00 7.53 11.94 7.67 11.94 7.73ZM26.31 11.90C26.31 12.39 27.26 12.81 28.11 12.81C29.16 12.81 30.13 12.17 30.13 11.12C30.13 10.25 29.16 9.83 28.36 9.45C27.76 9.16 27.24 8.95 27.24 8.37C27.24 7.67 27.78 7.43 28.22 7.43C29.11 7.43 28.92 8.34 29.27 8.34C29.46 8.34 29.90 8.23 29.90 8.06C29.90 7.67 29.48 7.06 28.41 7.06C27.40 7.06 26.35 7.71 26.35 8.68C26.35 9.62 27.24 10.00 28.00 10.33C28.66 10.61 29.22 10.91 29.22 11.54C29.22 12.14 28.80 12.40 28.34 12.40C27.72 12.40 27.36 12.08 27.06 11.72C26.92 11.54 26.87 11.31 26.77 11.31C26.67 11.31 26.31 11.62 26.31 11.90ZM37.73 7.60C37.73 7.66 37.77 7.67 37.84 7.67C37.90 7.67 38.49 7.66 38.53 7.66C38.63 7.66 38.65 8.05 38.65 8.69L38.65 10.89C38.65 11.83 38.86 12.80 40.22 12.80C41.26 12.80 42.45 12.15 42.48 12.15C42.52 12.15 42.49 12.87 42.57 12.87C42.63 12.87 43.76 12.70 44.24 12.63C44.42 12.60 44.42 12.59 44.42 12.38C44.42 12.29 44.42 12.19 44.34 12.19C44.30 12.19 43.75 12.28 43.72 12.28C43.54 12.28 43.50 12.19 43.50 11.49C43.50 10.63 43.51 7.28 43.51 7.28C43.51 7.20 43.53 7.15 43.37 7.15C43.30 7.15 42.46 7.20 41.75 7.22C41.62 7.22 41.58 7.25 41.57 7.35C41.55 7.39 41.54 7.56 41.54 7.60C41.54 7.64 41.59 7.64 41.65 7.64C41.69 7.64 42.24 7.62 42.35 7.62C42.43 7.62 42.46 9.87 42.46 10.18L42.46 11.83C42.46 11.93 41.71 12.01 41.23 12.01C40.40 12.01 39.72 11.86 39.72 11.12L39.72 7.31C39.72 7.22 39.72 7.18 39.63 7.18C39.56 7.18 38.35 7.22 38.04 7.24C37.87 7.25 37.83 7.24 37.79 7.36C37.76 7.43 37.73 7.55 37.73 7.60ZM52.01 7.71C52.01 7.76 52.04 7.76 52.11 7.76C52.15 7.76 52.86 7.73 52.95 7.73C53.03 7.73 53.06 9.20 53.06 10.33C53.06 11.24 53.05 12.21 52.95 12.21L52.33 12.21C52.16 12.21 52.16 12.29 52.16 12.43C52.16 12.59 52.18 12.67 52.35 12.67C52.77 12.67 53.24 12.64 53.59 12.64C54.00 12.64 54.85 12.67 55.12 12.67C55.30 12.67 55.30 12.56 55.30 12.43C55.30 12.29 55.29 12.21 55.12 12.21L54.19 12.21C54.10 12.21 54.07 11.47 54.07 10.68C54.07 9.46 54.18 7.87 54.82 7.87C55.06 7.87 55.34 8.32 55.65 8.32C55.92 8.32 56.22 7.85 56.22 7.69C56.22 7.49 55.83 7.04 55.38 7.04C54.94 7.04 54.36 7.49 54.04 8.26C53.97 8.40 53.98 8.46 53.98 8.23C53.98 7.98 54.00 7.64 54.00 7.42C54.00 7.29 54.00 7.29 53.83 7.29C53.73 7.29 52.84 7.32 52.32 7.34C52.12 7.34 52.09 7.34 52.07 7.45C52.05 7.52 52.01 7.66 52.01 7.71ZM63.77 11.61C63.77 12.35 64.30 12.84 65.18 12.84C65.80 12.84 66.51 12.45 66.92 12.19C67.02 12.14 67.03 12.11 67.07 12.24C67.16 12.46 67.21 12.88 67.66 12.88C67.76 12.88 68.00 12.74 68.25 12.56C68.59 12.31 68.96 12.04 68.96 12.01C68.96 11.93 68.81 11.73 68.74 11.73C68.71 11.73 68.29 12.08 68.18 12.08C68.14 12.08 67.93 12.01 67.93 11.70C67.93 11.40 68.01 9.56 68.01 8.85C68.01 7.73 67.58 6.97 66.14 6.97C65.21 6.97 63.97 7.67 63.97 8.85C63.97 9.00 64.02 9.11 64.09 9.11C64.16 9.11 64.67 8.86 64.90 8.69C64.99 8.64 65.00 8.50 65.00 8.41C65.00 7.84 65.03 7.63 65.41 7.48C65.53 7.42 65.70 7.39 65.84 7.39C67.00 7.39 67.02 8.32 67.02 9.31C67.02 9.44 67.02 9.48 66.95 9.49C65.56 9.73 63.77 10.32 63.77 11.61ZM64.83 11.21C64.83 10.58 65.46 10.22 66.12 10.01C66.51 9.88 66.93 9.80 66.98 9.80C67.00 9.80 67.02 9.81 67.02 9.91L67.02 11.75C67.02 11.84 66.23 12.14 65.70 12.14C65.14 12.14 64.83 11.65 64.83 11.21ZM76.47 7.73C76.47 7.77 76.48 7.80 76.54 7.80C76.59 7.80 77.28 7.74 77.32 7.74C77.41 7.74 77.46 7.70 77.48 7.90C77.50 8.33 77.50 8.81 77.50 9.28C77.50 9.73 77.48 12.21 77.39 12.21L76.76 12.21C76.59 12.21 76.58 12.29 76.58 12.43C76.58 12.59 76.58 12.67 76.76 12.67C77.18 12.67 77.69 12.64 78.04 12.64C78.44 12.64 78.95 12.67 79.21 12.67C79.39 12.67 79.39 12.56 79.39 12.43C79.39 12.29 79.39 12.21 79.20 12.21L78.67 12.21C78.54 12.21 78.53 12.21 78.53 11.98C78.53 10.84 78.54 9.67 78.54 8.53C78.54 8.41 78.55 8.36 78.76 8.25C79.04 8.11 79.45 7.85 80.00 7.85C81.05 7.85 81.30 8.62 81.30 9.63C81.30 11.03 81.27 12.21 81.21 12.21L80.61 12.21C80.46 12.21 80.39 12.26 80.39 12.45C80.39 12.61 80.39 12.67 80.60 12.67C81.02 12.67 81.47 12.64 81.82 12.64C82.22 12.64 82.60 12.67 82.87 12.67C83.06 12.67 83.08 12.56 83.08 12.43C83.08 12.25 83.02 12.21 82.84 12.21L82.42 12.21C82.31 12.21 82.31 12.21 82.31 12.08C82.31 11.87 82.38 10.47 82.38 9.70C82.38 8.33 82.12 7.18 80.47 7.18C79.60 7.18 79.09 7.63 78.67 7.90C78.57 7.95 78.51 8.05 78.51 7.90L78.51 7.42C78.51 7.28 78.54 7.21 78.33 7.22C77.92 7.25 76.97 7.31 76.78 7.32C76.58 7.34 76.59 7.35 76.55 7.46C76.52 7.53 76.47 7.67 76.47 7.73ZM90.83 10.12C90.83 11.73 91.85 12.78 93.52 12.78C94.91 12.78 95.77 11.90 95.77 11.82C95.77 11.68 95.73 11.66 95.63 11.66C95.56 11.66 94.91 12.08 93.94 12.08C92.53 12.08 91.83 10.93 91.83 9.77C91.83 8.68 92.51 7.43 93.67 7.43C94.53 7.43 94.56 8.04 94.78 8.68C94.82 8.82 94.93 8.86 95.06 8.86C95.20 8.86 95.38 8.76 95.51 8.67C95.63 8.57 95.66 8.48 95.66 8.36C95.66 7.60 94.68 6.97 93.76 6.97C92.39 6.97 90.83 8.02 90.83 10.12ZM103.54 10.01C103.54 11.68 104.51 12.85 106.27 12.85C107.73 12.85 108.72 11.56 108.72 11.48C108.72 11.45 108.49 11.24 108.44 11.24C108.36 11.24 107.77 12.15 106.60 12.15C105.59 12.15 104.59 11.33 104.59 9.88C104.59 9.72 104.61 9.49 104.64 9.42C104.85 9.42 107.60 9.49 107.76 9.49C107.90 9.49 108.56 9.46 108.56 9.28C108.56 8.09 107.84 7.01 106.43 7.01C104.72 7.01 103.54 8.33 103.54 10.01ZM104.66 9.03C104.72 8.34 105.36 7.41 106.26 7.41C106.69 7.41 107.51 7.70 107.51 8.99C107.51 9.04 107.34 9.03 106.99 9.04C106.29 9.07 104.86 9.10 104.79 9.10C104.68 9.10 104.66 9.09 104.66 9.03ZM126.41 10.43C126.41 11.79 127.40 12.78 128.95 12.78C130.16 12.78 131.18 11.72 131.61 11.24C131.73 11.12 131.74 11.12 131.84 11.26C132.01 11.49 132.33 12.00 132.50 12.61C132.54 12.74 132.58 12.78 132.75 12.78C132.96 12.78 133.46 12.66 134.40 12.64C134.61 12.64 134.62 12.63 134.62 12.39C134.62 12.19 134.62 12.18 134.50 12.18C133.71 12.18 133.67 12.08 133.50 11.80C133.27 11.37 132.90 10.79 132.59 10.42C132.51 10.30 132.47 10.25 132.47 10.22C132.51 10.08 133.53 8.64 133.81 8.23C133.92 8.06 133.99 7.99 134.06 7.99L134.54 7.99C134.74 7.99 134.78 7.98 134.78 7.78C134.78 7.55 134.75 7.49 134.60 7.49C134.46 7.49 133.94 7.53 133.56 7.53C132.85 7.53 132.23 7.49 132.01 7.49C131.88 7.49 131.82 7.53 131.82 7.74C131.82 7.97 131.82 7.99 132.01 7.99L132.89 7.99C133.13 7.99 133.11 8.01 133.11 8.02C133.11 8.30 132.55 9.18 132.26 9.72C132.16 9.90 132.17 9.91 132.01 9.73C131.28 8.95 130.68 8.29 129.82 7.57C129.64 7.42 129.63 7.42 129.84 7.28C130.37 6.92 131.60 5.99 131.60 5.01C131.60 4.03 130.66 3.57 129.65 3.57C128.41 3.57 127.33 4.52 127.33 5.80C127.33 6.45 127.82 7.10 128.13 7.45C128.24 7.57 128.32 7.63 128.32 7.66C128.32 7.69 128.27 7.73 128.16 7.81C127.64 8.18 126.41 9.16 126.41 10.43ZM127.36 9.84C127.36 9.00 127.95 8.48 128.37 8.18C128.55 8.05 128.65 7.98 128.69 7.98C128.74 7.98 128.80 8.04 128.93 8.13C129.72 8.79 130.84 9.90 131.36 10.63C131.42 10.72 131.46 10.77 131.46 10.79C131.46 10.82 131.43 10.85 131.39 10.91C131.11 11.19 130.41 11.83 129.40 11.83C128.37 11.83 127.36 10.93 127.36 9.84ZM128.32 5.35C128.32 4.69 128.69 4.07 129.49 4.07C130.13 4.07 130.56 4.63 130.56 5.24C130.56 6.03 129.98 6.61 129.58 6.90C129.44 7.00 129.37 7.06 129.30 7.06C129.25 7.06 129.16 6.97 129.02 6.82C128.73 6.47 128.32 5.87 128.32 5.35ZM152.14 5.01C152.14 5.17 152.32 5.17 152.45 5.17C152.60 5.17 152.64 5.15 152.66 4.97L152.77 3.89C152.78 3.81 153.33 3.75 154.08 3.75L156.07 3.75C156.13 3.75 156.16 4.35 156.16 4.97C156.16 6.43 156.10 12.18 155.97 12.18L155.11 12.18C154.88 12.18 154.84 12.19 154.84 12.39C154.84 12.63 154.85 12.68 155.05 12.68C155.37 12.68 156.35 12.64 156.77 12.64C157.19 12.64 158.13 12.68 158.45 12.68C158.62 12.68 158.65 12.61 158.65 12.40C158.65 12.24 158.62 12.18 158.45 12.18L157.46 12.18C157.43 12.18 157.43 11.76 157.43 11.31C157.43 9.56 157.51 5.96 157.51 5.92C157.53 5.18 157.53 3.75 157.63 3.75L159.24 3.75C159.95 3.75 160.78 3.78 160.78 3.85C160.78 3.99 160.73 4.90 160.73 4.97C160.73 5.12 160.80 5.17 160.99 5.17C161.18 5.17 161.25 5.17 161.25 5.03C161.25 3.93 161.31 3.40 161.31 3.14C161.31 2.94 161.22 2.94 161.03 2.94C160.87 2.94 160.82 2.98 160.80 3.16C160.80 3.23 160.16 3.28 159.32 3.28L154.32 3.28C153.66 3.28 152.85 3.28 152.85 3.21L152.85 3.07C152.85 2.94 152.73 2.94 152.63 2.94C152.40 2.94 152.38 3.00 152.36 3.19C152.31 3.89 152.14 4.97 152.14 5.01ZM167.87 11.61C167.87 12.35 168.41 12.84 169.29 12.84C169.90 12.84 170.62 12.45 171.02 12.19C171.12 12.14 171.14 12.11 171.18 12.24C171.26 12.46 171.32 12.88 171.77 12.88C171.86 12.88 172.10 12.74 172.35 12.56C172.69 12.31 173.07 12.04 173.07 12.01C173.07 11.93 172.91 11.73 172.84 11.73C172.82 11.73 172.40 12.08 172.28 12.08C172.24 12.08 172.03 12.01 172.03 11.70C172.03 11.40 172.12 9.56 172.12 8.85C172.12 7.73 171.68 6.97 170.24 6.97C169.32 6.97 168.07 7.67 168.07 8.85C168.07 9.00 168.13 9.11 168.20 9.11C168.27 9.11 168.77 8.86 169.01 8.69C169.09 8.64 169.11 8.50 169.11 8.41C169.11 7.84 169.13 7.63 169.51 7.48C169.64 7.42 169.81 7.39 169.95 7.39C171.11 7.39 171.12 8.32 171.12 9.31C171.12 9.44 171.12 9.48 171.05 9.49C169.67 9.73 167.87 10.32 167.87 11.61ZM168.94 11.21C168.94 10.58 169.57 10.22 170.23 10.01C170.62 9.88 171.04 9.80 171.08 9.80C171.11 9.80 171.12 9.81 171.12 9.91L171.12 11.75C171.12 11.84 170.34 12.14 169.81 12.14C169.25 12.14 168.94 11.65 168.94 11.21ZM180.60 12.43C180.60 12.60 180.60 12.67 180.74 12.67C180.95 12.67 181.26 12.64 181.61 12.64C182.01 12.64 182.31 12.67 182.52 12.67C182.71 12.67 182.71 12.56 182.71 12.43C182.71 12.29 182.71 12.21 182.52 12.21L182.10 12.21C181.89 12.21 181.90 12.14 182.01 11.97C182.34 11.52 183.04 10.74 183.33 10.39C183.39 10.32 183.41 10.29 183.44 10.29C183.47 10.29 183.50 10.33 183.55 10.40C183.76 10.68 184.17 11.26 184.45 11.70C184.55 11.87 184.70 12.03 184.70 12.12C184.70 12.18 184.65 12.21 184.51 12.21L184.32 12.21C184.16 12.21 184.14 12.29 184.14 12.43C184.14 12.59 184.14 12.67 184.34 12.67C184.42 12.67 184.97 12.64 185.32 12.64C185.72 12.64 186.17 12.67 186.33 12.67C186.51 12.67 186.51 12.56 186.51 12.43C186.51 12.29 186.51 12.21 186.31 12.21L186.14 12.21C186.03 12.21 186.02 12.21 185.89 12.04C185.51 11.56 184.62 10.33 184.27 9.84C184.18 9.73 184.16 9.69 184.16 9.66C184.16 9.63 184.18 9.60 184.27 9.52C184.56 9.23 185.18 8.58 185.74 8.06C185.96 7.85 186.07 7.67 186.35 7.67C186.52 7.67 186.54 7.59 186.54 7.45C186.54 7.28 186.52 7.21 186.37 7.21C186.26 7.21 185.98 7.24 185.57 7.24C185.19 7.24 184.84 7.21 184.77 7.21C184.58 7.21 184.58 7.31 184.58 7.45C184.58 7.59 184.58 7.67 184.76 7.67L184.98 7.67C185.26 7.67 185.28 7.70 185.28 7.74C185.28 7.77 185.25 7.81 185.19 7.88C185.05 8.06 184.18 9.09 184.06 9.21C183.90 9.37 183.92 9.41 183.81 9.23L182.92 7.94C182.85 7.85 182.81 7.76 182.81 7.73C182.81 7.67 182.88 7.67 183.09 7.67C183.25 7.67 183.25 7.59 183.25 7.45C183.25 7.29 183.23 7.21 183.08 7.21C182.98 7.21 182.56 7.24 182.21 7.24C181.80 7.24 181.20 7.21 181.08 7.21C180.88 7.21 180.88 7.32 180.88 7.45C180.88 7.59 180.88 7.67 181.08 7.67L181.38 7.67C181.51 7.67 181.52 7.69 181.66 7.87L183.16 9.88C183.23 9.98 183.22 10.00 183.12 10.09L181.44 11.82C181.09 12.18 181.06 12.21 180.81 12.21C180.64 12.21 180.60 12.24 180.60 12.43ZM193.96 10.01C193.96 11.68 194.92 12.85 196.69 12.85C198.14 12.85 199.14 11.56 199.14 11.48C199.14 11.45 198.90 11.24 198.86 11.24C198.77 11.24 198.18 12.15 197.01 12.15C196 12.15 195.01 11.33 195.01 9.88C195.01 9.72 195.02 9.49 195.05 9.42C195.26 9.42 198.02 9.49 198.17 9.49C198.31 9.49 198.97 9.46 198.97 9.28C198.97 8.09 198.25 7.01 196.84 7.01C195.13 7.01 193.96 8.33 193.96 10.01ZM195.08 9.03C195.13 8.34 195.78 7.41 196.67 7.41C197.11 7.41 197.92 7.70 197.92 8.99C197.92 9.04 197.75 9.03 197.40 9.04C196.70 9.07 195.27 9.10 195.20 9.10C195.09 9.10 195.08 9.09 195.08 9.03ZM206.95 11.90C206.95 12.39 207.90 12.81 208.75 12.81C209.80 12.81 210.77 12.17 210.77 11.12C210.77 10.25 209.80 9.83 209.01 9.45C208.40 9.16 207.89 8.95 207.89 8.37C207.89 7.67 208.42 7.43 208.87 7.43C209.75 7.43 209.57 8.34 209.92 8.34C210.10 8.34 210.55 8.23 210.55 8.06C210.55 7.67 210.13 7.06 209.05 7.06C208.04 7.06 206.99 7.71 206.99 8.68C206.99 9.62 207.89 10.00 208.64 10.33C209.30 10.61 209.86 10.91 209.86 11.54C209.86 12.14 209.44 12.40 208.98 12.40C208.36 12.40 208.00 12.08 207.70 11.72C207.56 11.54 207.51 11.31 207.41 11.31C207.31 11.31 206.95 11.62 206.95 11.90ZM228.54 3.49C228.54 3.72 228.65 3.74 228.82 3.74L229.43 3.74C229.49 3.74 229.56 4.79 229.56 5.71C229.56 5.80 229.61 8.27 229.61 9.83L229.61 11.17C229.61 11.84 229.60 12.18 229.54 12.18L228.96 12.18C228.73 12.18 228.66 12.19 228.66 12.39C228.66 12.63 228.68 12.68 228.87 12.68C229.08 12.68 229.92 12.64 230.34 12.64C230.76 12.64 231.70 12.68 232.02 12.68C232.19 12.68 232.22 12.61 232.22 12.40C232.22 12.24 232.19 12.18 232.02 12.18L230.89 12.18C230.83 12.18 230.85 10.16 230.80 8.33C230.80 8.08 230.79 8.09 230.99 8.09L233.41 8.09C234.11 8.09 234.14 8.19 234.14 8.30L234.14 9.16C234.14 9.28 234.32 9.28 234.43 9.28C234.53 9.28 234.65 9.28 234.65 9.17C234.65 8.99 234.63 8.33 234.63 7.83C234.63 7.32 234.65 6.82 234.65 6.69C234.65 6.58 234.54 6.58 234.42 6.58C234.25 6.58 234.14 6.58 234.14 6.71L234.14 7.45C234.14 7.62 233.69 7.63 233.41 7.63L230.99 7.63C230.78 7.63 230.80 7.66 230.80 7.45C230.79 7.13 230.78 6.15 230.78 5.26C230.78 4.52 230.79 3.71 230.86 3.71C232.26 3.71 234.44 3.75 234.74 3.79C234.74 3.96 234.70 4.82 234.70 4.89C234.70 5.04 234.77 5.10 234.95 5.10C235.14 5.10 235.21 5.08 235.21 4.94C235.21 3.85 235.27 3.36 235.27 3.09C235.27 2.93 235.19 2.90 234.99 2.90C234.86 2.90 234.79 2.90 234.77 3.11C234.75 3.25 234.82 3.25 233.87 3.25C233.27 3.25 230.99 3.29 230.24 3.29C229.75 3.29 228.82 3.25 228.72 3.25C228.59 3.25 228.54 3.30 228.54 3.49ZM242.82 10.04C242.82 11.58 243.98 12.85 245.50 12.85C247.27 12.85 248.30 11.58 248.30 9.84C248.30 8.29 247.28 7.01 245.73 7.01C243.98 7.01 242.82 8.37 242.82 10.04ZM243.89 10.23C243.89 8.69 244.29 7.46 245.56 7.46C246.69 7.46 247.21 8.74 247.21 9.74C247.21 10.92 246.97 12.40 245.50 12.40C244.45 12.40 243.89 11.27 243.89 10.23ZM255.98 7.71C255.98 7.76 256.00 7.76 256.07 7.76C256.12 7.76 256.83 7.73 256.91 7.73C257.00 7.73 257.03 9.20 257.03 10.33C257.03 11.24 257.01 12.21 256.91 12.21L256.30 12.21C256.13 12.21 256.13 12.29 256.13 12.43C256.13 12.59 256.14 12.67 256.31 12.67C256.73 12.67 257.21 12.64 257.56 12.64C257.96 12.64 258.82 12.67 259.08 12.67C259.27 12.67 259.27 12.56 259.27 12.43C259.27 12.29 259.25 12.21 259.08 12.21L258.16 12.21C258.06 12.21 258.03 11.47 258.03 10.68C258.03 9.46 258.15 7.87 258.79 7.87C259.03 7.87 259.31 8.32 259.62 8.32C259.88 8.32 260.19 7.85 260.19 7.69C260.19 7.49 259.80 7.04 259.35 7.04C258.90 7.04 258.33 7.49 258.01 8.26C257.94 8.40 257.95 8.46 257.95 8.23C257.95 7.98 257.96 7.64 257.96 7.42C257.96 7.29 257.96 7.29 257.80 7.29C257.70 7.29 256.80 7.32 256.28 7.34C256.09 7.34 256.06 7.34 256.03 7.45C256.02 7.52 255.98 7.66 255.98 7.71ZM277.47 12.39C277.47 12.63 277.47 12.68 277.66 12.68C277.83 12.68 278.15 12.64 278.73 12.64C279.34 12.64 279.89 12.68 280.04 12.68C280.21 12.68 280.21 12.61 280.21 12.40C280.21 12.24 280.21 12.18 280.04 12.18L278.96 12.18C278.96 12.18 278.95 12.18 278.95 12.17C278.96 11.87 279.73 9.90 280.08 9.02C280.15 8.83 280.17 8.79 280.38 8.79L283.21 8.79C283.35 8.79 283.35 8.81 283.42 9.03C283.68 9.77 284.40 11.89 284.40 12.17C284.40 12.18 284.38 12.18 284.38 12.18L283.61 12.18C283.39 12.18 283.37 12.19 283.37 12.39C283.37 12.63 283.39 12.68 283.56 12.68C283.88 12.68 284.75 12.64 285.17 12.64C285.59 12.64 286.26 12.68 286.47 12.68C286.61 12.68 286.62 12.61 286.62 12.40C286.62 12.24 286.61 12.18 286.47 12.18L285.98 12.18C285.88 12.18 284.86 9.34 284.30 7.78L282.62 3.07C282.60 3.00 282.53 2.94 282.45 2.94C282.32 2.94 282.23 3.16 282.14 3.35C281.99 3.71 281.75 3.84 281.64 4.13L280.15 7.57C279.97 8.01 278.26 12.18 278.14 12.18L277.72 12.18C277.49 12.18 277.47 12.19 277.47 12.39ZM280.36 8.33C280.36 8.30 280.39 8.23 280.43 8.13L281.81 4.77C281.85 4.66 281.88 4.61 281.90 4.61C281.92 4.61 281.93 4.63 281.97 4.77L283.14 8.18C283.16 8.25 283.18 8.29 283.18 8.32C283.18 8.36 283.15 8.37 283.05 8.37L280.55 8.37C280.36 8.37 280.36 8.34 280.36 8.33ZM294.08 3.58C294.08 3.65 294.10 3.65 294.15 3.65C294.21 3.65 294.80 3.60 294.88 3.60C294.95 3.60 295.01 3.57 295.04 3.82C295.15 5.07 295.19 10.37 295.19 11.06C295.19 11.44 295.19 12.21 295.12 12.21L294.41 12.21C294.25 12.21 294.24 12.29 294.24 12.43C294.24 12.59 294.25 12.67 294.42 12.67C294.84 12.67 295.41 12.64 295.76 12.64C296.17 12.64 296.66 12.67 296.93 12.67C297.09 12.67 297.09 12.60 297.09 12.43C297.09 12.28 297.09 12.21 296.93 12.21L296.32 12.21C296.27 12.21 296.25 12.05 296.25 11.70C296.25 8.89 296.18 7.62 296.17 3.32C296.17 3.16 296.17 3.07 296.03 3.07C295.95 3.07 294.85 3.15 294.29 3.19C294.18 3.21 294.15 3.19 294.13 3.32C294.10 3.42 294.08 3.57 294.08 3.58ZM304.68 3.58C304.68 3.65 304.70 3.65 304.75 3.65C304.81 3.65 305.40 3.60 305.48 3.60C305.55 3.60 305.61 3.57 305.63 3.82C305.75 5.07 305.79 10.37 305.79 11.06C305.79 11.44 305.79 12.21 305.72 12.21L305.00 12.21C304.85 12.21 304.84 12.29 304.84 12.43C304.84 12.59 304.85 12.67 305.02 12.67C305.44 12.67 306.01 12.64 306.36 12.64C306.77 12.64 307.26 12.67 307.52 12.67C307.69 12.67 307.69 12.60 307.69 12.43C307.69 12.28 307.69 12.21 307.52 12.21L306.92 12.21C306.87 12.21 306.85 12.05 306.85 11.70C306.85 8.89 306.78 7.62 306.77 3.32C306.77 3.16 306.77 3.07 306.63 3.07C306.54 3.07 305.45 3.15 304.89 3.19C304.78 3.21 304.75 3.19 304.72 3.32C304.70 3.42 304.68 3.57 304.68 3.58Z"></path></g></svg>