<svg data-v-fde0c5aa="" xmlns="http://www.w3.org/2000/svg" viewBox="0 0 300 300" class="font"><!----><defs data-v-fde0c5aa=""><!----></defs><rect data-v-fde0c5aa="" fill="transparent" x="0" y="0" width="300px" height="300px" class="logo-background-square"></rect><defs data-v-fde0c5aa=""><linearGradient data-v-fde0c5aa="" gradientTransform="rotate(25)" id="5fa1c21f-564f-48ce-acc0-845ddac552e1" x1="0%" y1="0%" x2="100%" y2="0%"><stop data-v-fde0c5aa="" offset="0%" stop-color="#843D48" stop-opacity="1"></stop><stop data-v-fde0c5aa="" offset="100%" stop-color="#CD978E" stop-opacity="1"></stop></linearGradient></defs><g data-v-fde0c5aa="" id="f307f864-c529-4295-9797-7b984867ef2d" fill="url(#5fa1c21f-564f-48ce-acc0-845ddac552e1)" transform="matrix(3.0602309343137675,0,0,3.0602309343137675,43.51926550149924,119.09166785527732)"><path d="M2.31 3.99L2.25 3.99C1.33 3.99 0.57 3.92 0.52 3.92C0.28 3.92 0.21 4.13 0.21 4.30C0.21 4.54 0.39 4.58 0.52 4.59C1.32 4.68 1.65 4.62 1.65 5.11L1.65 13.80C1.65 14.17 1.62 14.36 1.53 14.71C1.46 14.98 1.30 15.57 0.83 15.57C0.22 15.57 0.17 14.64-0.52 14.64C-0.90 14.64-1.15 14.97-1.15 15.33C-1.15 15.82-0.70 16.41-0.03 16.41C0.66 16.41 1.55 15.62 1.69 15.48C2.39 14.81 2.93 13.79 2.93 12.66L2.93 5.14C2.93 4.87 2.97 4.69 3.29 4.66C3.95 4.59 4.19 4.66 4.19 4.21C4.19 4.07 4.14 3.93 3.95 3.93C3.78 3.93 3.29 3.99 2.31 3.99ZM6.64 13.44C7.55 13.44 8.29 13.52 8.33 13.52C8.51 13.52 8.55 13.37 8.55 13.13C8.55 12.81 8.08 12.85 7.87 12.82C7.20 12.75 7.20 12.56 7.20 12.36L7.20 8.57C7.20 8.43 7.22 8.33 7.41 8.33L12.18 8.33C12.31 8.33 12.36 8.36 12.36 8.48L12.36 12.28C12.36 12.59 12.33 12.80 11.94 12.81C11.09 12.88 10.95 12.81 10.95 13.24C10.95 13.38 10.99 13.52 11.17 13.52C11.23 13.52 11.96 13.44 12.87 13.44C13.78 13.44 14.52 13.52 14.57 13.52C14.80 13.52 14.85 13.33 14.85 13.16C14.85 12.80 14.52 12.85 13.99 12.81C13.62 12.78 13.59 12.53 13.59 12.36L13.59 12.29L13.59 4.94C13.59 4.76 13.62 4.58 13.97 4.54C14.63 4.44 14.94 4.48 14.94 4.07C14.94 3.91 14.84 3.79 14.67 3.79C14.62 3.79 13.83 3.85 12.84 3.85C11.97 3.85 11.54 3.82 11.40 3.82C11.17 3.82 11.06 3.95 11.06 4.16C11.06 4.61 11.69 4.38 12.05 4.54C12.33 4.63 12.35 4.90 12.35 5.14L12.35 7.21C12.35 7.32 12.33 7.46 12.11 7.46L7.38 7.46C7.22 7.46 7.20 7.38 7.20 7.27L7.20 4.96C7.20 4.70 7.24 4.55 7.52 4.54C8.37 4.48 8.58 4.52 8.58 4.24C8.58 4.20 8.57 4.16 8.57 4.12C8.54 3.95 8.51 3.82 8.30 3.82C8.13 3.82 7.63 3.85 6.62 3.85L6.58 3.85C5.60 3.85 5.11 3.82 4.94 3.82C4.68 3.82 4.62 4.10 4.62 4.20C4.62 4.51 4.98 4.45 5.24 4.49C5.66 4.55 5.95 4.52 5.95 4.97L5.95 12.38C5.95 12.61 5.92 12.80 5.59 12.82C4.82 12.88 4.63 12.84 4.63 13.15C4.63 13.36 4.69 13.52 4.91 13.52C4.97 13.52 5.70 13.44 6.64 13.44ZM19.32 3.92C19.08 3.92 19.01 4.14 19.01 4.31C19.01 4.55 19.17 4.59 19.33 4.61C20.06 4.65 20.26 4.61 20.26 4.90C20.26 4.94 20.24 5.01 20.24 5.10L20.24 12.38C20.24 12.61 20.20 12.75 19.95 12.77C18.97 12.84 18.77 12.78 18.77 13.08C18.77 13.12 18.77 13.16 18.79 13.20C18.80 13.36 18.82 13.52 19.03 13.52C19.08 13.52 19.87 13.44 20.82 13.44C21.77 13.44 22.54 13.52 22.60 13.52C22.83 13.52 22.88 13.29 22.88 13.12C22.88 12.78 22.55 12.85 21.77 12.80C21.52 12.77 21.52 12.59 21.52 12.45L21.52 4.89C21.52 4.77 21.55 4.66 21.74 4.65C22.46 4.58 22.62 4.62 22.62 4.20C22.62 3.98 22.50 3.93 22.39 3.93C22.25 3.93 21.81 3.99 20.93 3.99C20.06 3.99 19.38 3.92 19.32 3.92ZM25.09 8.16C25.09 8.15 25.10 8.11 25.10 8.08L25.10 7.53C25.10 7.42 25.06 7.32 24.93 7.32C24.88 7.32 24.84 7.35 24.79 7.38C23.49 8.08 23.46 8.06 23.46 8.18L23.46 8.19C23.46 8.25 23.51 8.29 23.55 8.33C24.18 8.81 24.18 8.78 24.18 9.11L24.18 12.46C24.18 12.70 24.16 12.88 23.81 12.94C23.38 13.01 23.27 12.99 23.27 13.27C23.27 13.47 23.41 13.52 23.49 13.52C23.53 13.52 24.05 13.44 24.72 13.44C25.41 13.44 25.98 13.54 26.03 13.54C26.15 13.54 26.21 13.43 26.21 13.29C26.21 12.98 26.04 13.01 25.45 12.91C25.16 12.87 25.14 12.67 25.14 12.52L25.14 12.47L25.14 9.16C25.14 9.10 25.14 9.03 25.16 8.97C25.21 8.72 25.79 8.06 26.60 8.06C26.92 8.06 27.69 8.19 28.00 8.90C28.17 9.32 28.18 10.16 28.18 10.42L28.18 12.59C28.18 12.82 28.14 12.89 27.96 12.92C27.40 13.02 27.23 12.99 27.23 13.24C27.23 13.38 27.26 13.52 27.43 13.52C27.45 13.52 27.96 13.44 28.57 13.44C29.27 13.44 29.62 13.52 29.75 13.52C29.83 13.52 29.96 13.48 29.96 13.24C29.96 13.15 29.95 13.02 29.76 12.99C29.27 12.92 29.09 12.95 29.09 12.56L29.09 12.53C29.09 10.60 29.11 10.35 29.11 10.11C29.11 9.87 29.11 9.63 29.08 9.39C28.94 7.66 27.72 7.38 27.09 7.38L27.06 7.38C25.86 7.39 25.20 8.22 25.14 8.22L25.13 8.22C25.12 8.22 25.09 8.20 25.09 8.16ZM30.53 9.11C30.53 9.80 30.95 10.50 32.09 10.82C32.54 10.95 33.77 11.09 33.77 12.01C33.77 12.57 33.26 12.95 32.63 12.95C31.82 12.95 31.18 12.42 31.04 12.12C30.84 11.73 31.07 11.26 30.72 11.26C30.51 11.26 30.46 11.33 30.46 11.69C30.46 11.89 30.48 12.15 30.48 12.53C30.48 12.74 30.51 12.85 30.65 13.01C31.05 13.48 31.93 13.71 32.58 13.71C33.96 13.71 34.71 12.71 34.71 11.82C34.71 11.59 34.65 11.13 34.29 10.71C33.77 10.11 33.11 10.07 32.40 9.87C31.36 9.58 31.29 9.06 31.29 8.86C31.29 8.41 31.70 8.12 32.17 8.12C32.63 8.12 33.14 8.41 33.32 8.67C33.52 8.95 33.47 9.35 33.77 9.35C33.88 9.35 34.09 9.31 34.09 9.13C34.09 9.07 33.91 8.15 33.82 7.66C33.81 7.59 33.77 7.39 33.60 7.39C33.43 7.39 33.38 7.53 33.25 7.53C33.18 7.53 32.97 7.46 32.55 7.46C31.29 7.46 30.53 8.27 30.53 9.11ZM39.86 12.98C39.87 12.98 39.90 12.98 39.90 13.03L39.90 13.36C39.90 13.50 39.93 13.64 40.10 13.64C40.15 13.64 40.21 13.61 40.25 13.58C41.45 12.92 41.65 13.24 41.65 12.82C41.65 12.74 41.64 12.70 41.54 12.66C40.92 12.36 40.84 12.40 40.84 12.24L40.84 7.85C40.84 7.71 40.82 7.57 40.63 7.57C40.45 7.57 40.28 7.59 38.91 7.63C38.79 7.64 38.71 7.69 38.71 7.87C38.71 8.01 38.78 8.06 38.92 8.09C39.63 8.22 39.84 8.20 39.84 8.60L39.84 12.04C39.84 12.21 39.82 12.22 39.61 12.46C39.35 12.71 38.95 12.96 38.42 12.96C37.67 12.96 37.16 12.46 36.93 12.03C36.68 11.52 36.68 11.00 36.68 10.58L36.68 7.71C36.68 7.62 36.65 7.55 36.54 7.55C36.40 7.55 36.25 7.56 35.08 7.63C34.94 7.64 34.93 7.73 34.93 7.83L34.93 7.87C34.93 8.11 35.11 8.05 35.36 8.16C35.74 8.30 35.74 8.43 35.74 8.55C35.74 8.78 35.73 10.36 35.73 10.81C35.73 11.10 35.74 11.38 35.77 11.66C35.94 12.95 36.78 13.69 37.91 13.69C39.07 13.69 39.79 12.98 39.86 12.98ZM43.93 8.16C43.90 8.16 43.89 8.13 43.89 8.09L43.89 7.53C43.89 7.41 43.88 7.25 43.72 7.25C43.68 7.25 43.64 7.28 43.60 7.29C42.14 8.01 42.13 7.98 42.13 8.05C42.14 8.11 42.17 8.13 42.18 8.15C42.84 8.62 42.95 8.61 42.95 8.89L42.95 12.60C42.95 12.81 42.90 12.89 42.70 12.94C42.32 13.03 42.07 12.95 42.07 13.29C42.07 13.43 42.15 13.52 42.29 13.52C42.34 13.52 42.94 13.44 43.72 13.44C44.48 13.44 45.09 13.52 45.14 13.52C45.32 13.52 45.33 13.36 45.33 13.24C45.33 12.92 45.15 12.98 44.31 12.91C43.97 12.88 43.96 12.64 43.96 12.49L43.96 12.43L43.96 9.07C43.96 8.97 43.96 8.90 44.02 8.82C44.10 8.69 44.66 8.25 45.11 8.25C45.57 8.25 45.58 8.60 45.93 8.60C46.17 8.60 46.35 8.41 46.51 8.32C46.62 8.22 46.87 8.06 46.89 7.83L46.89 7.81C46.89 7.42 46.24 7.20 45.79 7.20C45.64 7.20 45.51 7.21 45.39 7.25C45.01 7.39 43.99 8.16 43.93 8.16ZM47.32 8.61C47.32 8.93 47.61 9.11 47.88 9.11C48.06 9.11 48.15 9.02 48.19 8.96C48.22 8.90 48.59 8.02 49.39 8.02C49.76 8.02 50.04 8.22 50.20 8.40C50.48 8.72 50.54 9.07 50.54 9.52L50.54 10.02C50.54 10.12 50.53 10.19 50.43 10.22C50.40 10.23 48.72 10.29 47.96 10.89C47.63 11.16 47.38 11.61 47.38 12.14L47.38 12.15C47.38 13.01 48.01 13.72 48.97 13.72C49.49 13.72 49.95 13.54 50.27 13.33C50.62 13.09 50.58 13.02 50.65 13.02C50.67 13.02 50.67 13.03 50.68 13.03C50.71 13.05 51.04 13.61 51.67 13.61C52.40 13.61 52.75 12.82 52.75 12.50C52.75 12.38 52.68 12.32 52.63 12.32C52.42 12.32 52.44 12.78 52.01 12.78C51.87 12.78 51.53 12.71 51.53 12.17L51.53 9.41C51.53 9.24 51.52 9.07 51.51 8.90C51.37 7.53 50.01 7.36 49.48 7.36C48.31 7.36 47.32 8.11 47.32 8.61ZM49.31 12.95C49.13 12.95 48.87 12.92 48.71 12.77C48.48 12.57 48.41 12.22 48.41 12.00C48.41 11.65 48.57 11.40 48.75 11.24C49.21 10.81 50.16 10.74 50.41 10.74C50.54 10.74 50.55 10.81 50.55 11.14L50.55 11.72L50.55 12.05C50.55 12.18 50.54 12.28 50.47 12.38C50.40 12.47 49.99 12.95 49.31 12.95ZM54.81 8.16C54.81 8.15 54.82 8.11 54.82 8.08L54.82 7.53C54.82 7.42 54.78 7.32 54.66 7.32C54.60 7.32 54.56 7.35 54.52 7.38C53.21 8.08 53.19 8.06 53.19 8.18L53.19 8.19C53.19 8.25 53.23 8.29 53.27 8.33C53.90 8.81 53.90 8.78 53.90 9.11L53.90 12.46C53.90 12.70 53.89 12.88 53.54 12.94C53.10 13.01 52.99 12.99 52.99 13.27C52.99 13.47 53.13 13.52 53.21 13.52C53.26 13.52 53.77 13.44 54.45 13.44C55.13 13.44 55.71 13.54 55.75 13.54C55.87 13.54 55.93 13.43 55.93 13.29C55.93 12.98 55.76 13.01 55.17 12.91C54.88 12.87 54.87 12.67 54.87 12.52L54.87 12.47L54.87 9.16C54.87 9.10 54.87 9.03 54.88 8.97C54.94 8.72 55.51 8.06 56.32 8.06C56.64 8.06 57.41 8.19 57.72 8.90C57.89 9.32 57.90 10.16 57.90 10.42L57.90 12.59C57.90 12.82 57.86 12.89 57.68 12.92C57.12 13.02 56.95 12.99 56.95 13.24C56.95 13.38 56.98 13.52 57.15 13.52C57.18 13.52 57.68 13.44 58.30 13.44C59.00 13.44 59.35 13.52 59.47 13.52C59.56 13.52 59.68 13.48 59.68 13.24C59.68 13.15 59.67 13.02 59.49 12.99C59.00 12.92 58.81 12.95 58.81 12.56L58.81 12.53C58.81 10.60 58.83 10.35 58.83 10.11C58.83 9.87 58.83 9.63 58.80 9.39C58.66 7.66 57.44 7.38 56.81 7.38L56.78 7.38C55.58 7.39 54.92 8.22 54.87 8.22L54.85 8.22C54.84 8.22 54.81 8.20 54.81 8.16ZM62.75 13.69C63.80 13.69 64.61 13.12 65.06 12.50C65.10 12.45 65.14 12.36 65.14 12.28C65.14 12.14 65.03 12.04 64.90 12.04C64.58 12.04 64.29 12.80 63.20 12.80C61.91 12.80 60.98 11.63 60.98 10.33C60.98 9.16 61.73 8.18 62.58 8.18C63.39 8.18 63.63 9.02 64.27 9.02C64.57 9.02 64.83 8.81 64.83 8.48C64.83 7.95 64.06 7.45 63.06 7.45C61.26 7.45 60.06 8.78 60.06 10.68C60.06 12.40 61.14 13.69 62.75 13.69ZM65.46 10.56C65.46 12.95 67.02 13.71 68.17 13.71C69.16 13.71 70.07 13.20 70.64 12.46C70.71 12.38 70.74 12.29 70.74 12.24C70.74 12.11 70.64 12.03 70.52 12.03C70.38 12.03 70.27 12.15 70.20 12.22C69.76 12.64 69.15 12.91 68.53 12.91C66.77 12.91 66.46 11.05 66.46 10.88C66.46 10.75 66.54 10.77 69.44 9.77C69.85 9.63 70.57 9.49 70.57 9.07L70.57 9.06C70.57 8.93 70.52 8.82 70.46 8.75C69.94 8.04 69.02 7.41 68.05 7.41C66.65 7.41 65.46 8.60 65.46 10.56ZM69.22 9.10C69.22 9.16 69.17 9.23 69.09 9.27C69.06 9.28 66.51 10.28 66.47 10.28C66.44 10.28 66.40 10.26 66.40 10.18C66.40 8.93 66.93 8.18 67.75 8.18C68.53 8.18 69.22 8.93 69.22 9.10Z"></path></g><!----><!----></svg>